<svg width="144" height="144" viewBox="0 0 144 144" fill="none" xmlns="http://www.w3.org/2000/svg">
<rect width="144" height="144" fill="white"/>
<path d="M72 32C90.7313 32 106.453 44.8757 110.803 62.2589C110.807 62.2755 110.82 62.2884 110.837 62.2921C110.851 62.2952 110.859 62.2971 110.864 62.2982C110.868 62.299 110.869 62.3021 110.868 62.3057C110.867 62.3091 110.868 62.3133 110.867 62.3174C110.865 62.326 110.862 62.3363 110.859 62.3477C110.849 62.3971 110.849 62.4484 110.861 62.4976C111.603 65.5436 112 68.7255 112 72C112 94.0914 94.0914 112 72 112C49.9086 112 32 94.0914 32 72C32 49.9086 49.9086 32 72 32ZM69.2218 66.2687C69.2253 63.9429 67.2493 62.0687 64.9552 62.4516C55.52 64.0262 49.6792 68.2921 46.0723 72.3701C43.7597 74.9848 42.3004 77.6007 41.4238 79.5488C41.3388 79.7379 41.2593 79.9204 41.1853 80.0956C40.854 80.8802 40.8314 81.7593 41.1069 82.5652C45.4978 95.4084 57.6692 104.644 72 104.644C74.1326 104.644 74.9138 101.854 73.6616 100.128C71.0873 96.5796 69.3363 91.536 69.3203 84.5059C69.2964 73.9878 69.2066 76.3564 69.2218 66.2687ZM104.443 75.6123C104.471 75.3631 104.157 75.2346 103.995 75.4258C99.461 80.7688 92.2568 85.908 81.1716 87.6216C78.9079 87.9715 77.1503 90.0262 77.8897 92.1942C79.1055 95.7589 81.1028 97.5948 82.8037 98.6113C84.2581 99.4805 85.7395 99.8941 86.8779 100.084C87.4406 100.178 87.8992 100.214 88.1973 100.227C88.3275 100.232 88.4562 100.196 88.5685 100.13C97.2083 95.0298 103.292 86.0648 104.443 75.6123ZM72 39.3564C71.2917 39.3564 70.9554 40.2255 71.4136 40.7656C74.5083 44.4133 76.7285 49.9421 76.6953 58.1094C76.6411 71.4302 76.6791 72.9124 76.7191 76.3401C76.7461 78.6601 78.7308 80.5083 81.014 80.0958C89.7042 78.5258 95.0346 74.4726 98.3154 70.6064C100.455 68.0848 101.791 65.5593 102.586 63.6748C102.619 63.5958 102.652 63.5179 102.683 63.4413C103.007 62.6484 103.016 61.7631 102.727 60.9569C98.2 48.3631 86.1525 39.3564 72 39.3564ZM60.1074 42.1719C59.465 42.0235 58.795 42.1319 58.1976 42.411C48.4849 46.9494 41.3757 56.1281 39.7233 67.0958C39.6581 67.5285 40.2023 67.7633 40.4922 67.4355C45.3708 61.9197 53.0899 56.6062 64.9127 54.9201C67.1666 54.5987 68.9242 52.5787 68.257 50.4019C67.1483 46.7852 65.3002 44.8557 63.7441 43.7754C62.4332 42.8654 61.1082 42.403 60.1074 42.1719Z" fill="black"/>
</svg>
