<svg width="475" height="144" viewBox="0 0 475 144" fill="none" xmlns="http://www.w3.org/2000/svg">
<rect width="474.68" height="144" fill="white"/>
<path d="M72 32C90.7313 32 106.453 44.8757 110.803 62.2589C110.807 62.2755 110.82 62.2884 110.837 62.2921C110.851 62.2952 110.859 62.2971 110.864 62.2982C110.868 62.299 110.869 62.3021 110.868 62.3057C110.867 62.3091 110.868 62.3133 110.867 62.3174C110.865 62.326 110.862 62.3363 110.859 62.3477C110.849 62.3971 110.849 62.4484 110.861 62.4976C111.603 65.5436 112 68.7255 112 72C112 94.0914 94.0914 112 72 112C49.9086 112 32 94.0914 32 72C32 49.9086 49.9086 32 72 32ZM69.2218 66.2687C69.2253 63.9429 67.2493 62.0687 64.9552 62.4516C55.52 64.0262 49.6792 68.2921 46.0723 72.3701C43.7597 74.9848 42.3004 77.6007 41.4238 79.5488C41.3388 79.7379 41.2593 79.9204 41.1853 80.0956C40.854 80.8802 40.8314 81.7593 41.1069 82.5652C45.4978 95.4084 57.6692 104.644 72 104.644C74.1326 104.644 74.9138 101.854 73.6616 100.128C71.0873 96.5796 69.3363 91.536 69.3203 84.5059C69.2964 73.9878 69.2066 76.3564 69.2218 66.2687ZM104.443 75.6123C104.471 75.3631 104.157 75.2346 103.995 75.4258C99.461 80.7688 92.2568 85.908 81.1716 87.6216C78.9079 87.9715 77.1503 90.0262 77.8897 92.1942C79.1055 95.7589 81.1028 97.5948 82.8037 98.6113C84.2581 99.4805 85.7395 99.8941 86.8779 100.084C87.4406 100.178 87.8992 100.214 88.1973 100.227C88.3275 100.232 88.4562 100.196 88.5685 100.13C97.2083 95.0298 103.292 86.0648 104.443 75.6123ZM72 39.3564C71.2917 39.3564 70.9554 40.2255 71.4136 40.7656C74.5083 44.4133 76.7285 49.9421 76.6953 58.1094C76.6411 71.4302 76.6791 72.9124 76.7191 76.3401C76.7461 78.6601 78.7308 80.5083 81.014 80.0958C89.7042 78.5258 95.0346 74.4726 98.3154 70.6064C100.455 68.0848 101.791 65.5593 102.586 63.6748C102.619 63.5958 102.652 63.5179 102.683 63.4413C103.007 62.6484 103.016 61.7631 102.727 60.9569C98.2 48.3631 86.1525 39.3564 72 39.3564ZM60.1074 42.1719C59.465 42.0235 58.795 42.1319 58.1976 42.411C48.4849 46.9494 41.3757 56.1281 39.7233 67.0958C39.6581 67.5285 40.2023 67.7633 40.4922 67.4355C45.3708 61.9197 53.0899 56.6062 64.9127 54.9201C67.1666 54.5987 68.9242 52.5787 68.257 50.4019C67.1483 46.7852 65.3002 44.8557 63.7441 43.7754C62.4332 42.8654 61.1082 42.403 60.1074 42.1719Z" fill="black"/>
<path d="M144.617 102.265C141.621 102.265 138.858 101.495 136.329 99.9557C133.828 98.4164 131.807 96.3685 130.268 93.812C128.756 91.2281 128 88.3968 128 85.3181L128.082 58.5581C128.082 55.4245 128.838 52.6069 130.35 50.1055C131.835 47.5765 133.841 45.5561 136.37 44.0443C138.899 42.5049 141.648 41.7352 144.617 41.7352C147.695 41.7352 150.458 42.4912 152.905 44.003C155.378 45.5149 157.358 47.549 158.842 50.1055C160.354 52.6344 161.11 55.452 161.11 58.5581L161.192 85.3181C161.192 88.3968 160.45 91.2144 158.966 93.7708C157.454 96.3547 155.447 98.4164 152.946 99.9557C150.444 101.495 147.668 102.265 144.617 102.265ZM144.617 92.0803C146.321 92.0803 147.805 91.3931 149.07 90.0186C150.334 88.6167 150.967 87.0499 150.967 85.3181L150.884 58.5581C150.884 56.6889 150.293 55.1083 149.111 53.8164C147.929 52.5244 146.431 51.8785 144.617 51.8785C142.885 51.8785 141.401 52.5107 140.164 53.7752C138.927 55.0396 138.308 56.634 138.308 58.5581V85.3181C138.308 87.1598 138.927 88.7542 140.164 90.1011C141.401 91.4206 142.885 92.0803 144.617 92.0803Z" fill="black"/>
<path d="M175.79 101.44H166.307C166.032 101.44 165.894 101.303 165.894 101.028L166.059 43.0134C166.059 42.7935 166.169 42.6836 166.389 42.6836H182.635C187.803 42.6836 191.885 44.2642 194.881 47.4253C197.905 50.559 199.417 54.8335 199.417 60.2487C199.417 64.207 198.633 67.6568 197.066 70.5981C195.472 73.5118 193.41 75.7659 190.881 77.3602C188.352 78.9546 185.604 79.7517 182.635 79.7517H176.203V101.028C176.203 101.303 176.065 101.44 175.79 101.44ZM182.635 52.7031L176.203 52.7856V69.526H182.635C184.422 69.526 185.975 68.6739 187.294 66.9696C188.614 65.2378 189.273 62.9975 189.273 60.2487C189.273 58.0496 188.682 56.2491 187.5 54.8472C186.318 53.4178 184.697 52.7031 182.635 52.7031Z" fill="black"/>
<path d="M230.085 101.44H202.789C202.569 101.44 202.459 101.303 202.459 101.028L202.541 43.0134C202.541 42.7935 202.651 42.6836 202.871 42.6836H230.002C230.222 42.6836 230.332 42.821 230.332 43.0959V52.5382C230.332 52.7581 230.222 52.868 230.002 52.868H212.685V66.0625H230.002C230.222 66.0625 230.332 66.1724 230.332 66.3923L230.415 75.9583C230.415 76.1782 230.305 76.2882 230.085 76.2882H212.685V91.0495H230.085C230.305 91.0495 230.415 91.1869 230.415 91.4618V101.11C230.415 101.33 230.305 101.44 230.085 101.44Z" fill="black"/>
<path d="M244.425 101.44H235.972C235.533 101.44 235.313 101.248 235.313 100.863L235.23 43.3433C235.23 42.9035 235.45 42.6836 235.89 42.6836H243.518L257.784 75.9583L257.372 43.3433C257.372 42.9035 257.62 42.6836 258.114 42.6836H266.485C266.814 42.6836 266.979 42.9035 266.979 43.3433L267.062 100.945C267.062 101.275 266.924 101.44 266.649 101.44H259.228L244.59 70.3507L245.208 100.78C245.208 101.22 244.947 101.44 244.425 101.44Z" fill="black"/>
<path d="M291.731 101.44H282.206C281.959 101.44 281.835 101.303 281.835 101.028V52.868H270.867C270.592 52.868 270.455 52.7306 270.455 52.4557L270.537 43.0134C270.537 42.7935 270.647 42.6836 270.867 42.6836H302.946C303.249 42.6836 303.4 42.7935 303.4 43.0134V52.4557C303.4 52.7306 303.29 52.868 303.07 52.868H291.978L292.061 101.028C292.061 101.303 291.951 101.44 291.731 101.44Z" fill="black"/>
<path d="M315.73 101.44H306.164C305.944 101.44 305.834 101.303 305.834 101.028L305.999 43.0134C305.999 42.7935 306.109 42.6836 306.329 42.6836H323.399C326.45 42.6836 329.254 43.4258 331.811 44.9101C334.367 46.3945 336.401 48.3874 337.913 50.8889C339.453 53.3903 340.222 56.2216 340.222 59.3828C340.222 61.4444 339.906 63.3136 339.274 64.9904C338.642 66.6672 337.899 68.0829 337.047 69.2374C336.223 70.3919 335.467 71.2441 334.779 71.7938C337.831 75.1749 339.356 79.147 339.356 83.7101L339.439 101.028C339.439 101.303 339.301 101.44 339.026 101.44H329.46C329.241 101.44 329.131 101.358 329.131 101.193V83.7101C329.131 81.6759 328.416 79.9166 326.987 78.4323C325.557 76.9479 323.798 76.2057 321.709 76.2057H316.142L316.06 101.028C316.06 101.303 315.95 101.44 315.73 101.44ZM323.399 52.7856H316.142V66.0625H323.399C325.131 66.0625 326.67 65.4165 328.017 64.1245C329.392 62.8326 330.079 61.252 330.079 59.3828C330.079 57.596 329.419 56.0567 328.1 54.7647C326.78 53.4453 325.214 52.7856 323.399 52.7856Z" fill="black"/>
<path d="M341.389 101.028L351.862 43.0134C351.917 42.7935 352.054 42.6836 352.274 42.6836H364.52C364.74 42.6836 364.878 42.7935 364.933 43.0134L369.963 72.0206L374.993 101.028C375.021 101.303 374.911 101.44 374.664 101.44H365.304C365.029 101.44 364.878 101.303 364.85 101.028L363.943 94.8429H352.439L351.532 101.028C351.505 101.303 351.367 101.44 351.12 101.44H341.719C341.499 101.44 341.389 101.303 341.389 101.028ZM357.923 62.1042L354.13 85.8129H362.252L358.789 62.1042L358.294 58.9705L357.923 62.1042Z" fill="black"/>
<path d="M393.127 101.358L377.995 101.44C377.72 101.44 377.582 101.303 377.582 101.028L377.747 43.0134C377.747 42.7935 377.857 42.6836 378.077 42.6836L393.869 42.6011C397.003 42.5186 399.834 43.2333 402.363 44.7452C404.919 46.2571 406.954 48.305 408.466 50.8889C410.005 53.4453 410.775 56.2766 410.775 59.3828V83.6276C410.775 86.8712 409.991 89.84 408.424 92.5338C406.83 95.2002 404.713 97.3306 402.074 98.9249C399.436 100.492 396.453 101.303 393.127 101.358ZM393.869 52.7031L387.973 52.7856L387.89 91.0495H393.127C395.216 91.0495 396.975 90.321 398.405 88.8641C399.834 87.4072 400.549 85.6617 400.549 83.6276V59.3003C400.549 57.5136 399.889 55.9605 398.57 54.641C397.25 53.2941 395.683 52.6481 393.869 52.7031Z" fill="black"/>
<path d="M442.35 101.44H415.054C414.834 101.44 414.724 101.303 414.724 101.028L414.807 43.0134C414.807 42.7935 414.917 42.6836 415.136 42.6836H442.268C442.487 42.6836 442.597 42.821 442.597 43.0959V52.5382C442.597 52.7581 442.487 52.868 442.268 52.868H424.95V66.0625H442.268C442.487 66.0625 442.597 66.1724 442.597 66.3923L442.68 75.9583C442.68 76.1782 442.57 76.2882 442.35 76.2882H424.95V91.0495H442.35C442.57 91.0495 442.68 91.1869 442.68 91.4618V101.11C442.68 101.33 442.57 101.44 442.35 101.44Z" fill="black"/>
</svg>
